<?xml version="1.0" standalone="no"?><svg xmlns:xlink="http://www.w3.org/1999/xlink" xmlns="http://www.w3.org/2000/svg" viewBox="0 0 1000 400" preserveAspectRatio="xMaxYMax slice"><g transform="scale(1.1267605633802817)"><rect x="0" y="0" width="887.5" height="355" fill="#ffffff"/><rect x="0" y="0" width="177.5" height="177.5" fill="#183FE1"/><rect x="0" y="0" width="177.5" height="177.5" fill="#183FE1"/><rect x="177.5" y="0" width="177.5" height="177.5" fill="#ffffff"/><rect x="177.5" y="0" width="88.75" height="88.75" fill="#3377ff"/><path d="M 177.5 88.75 A 88.75 88.75 0 0 1  266.25 0 L 266.25 88.75" fill="#183FE1"/><rect x="266.25" y="0" width="88.75" height="88.75" fill="#183FE1"/><path d="M 266.25 0 A 88.75 88.75 0 0 1 355 88.75 L 266.25 88.75" fill="#183FE1"/><rect x="177.5" y="88.75" width="88.75" height="88.75" fill="#3377ff"/><path d="M 177.5 88.75 A 88.75 88.75 0 0 0 266.25 177.5 L 266.25 88.75" fill="#183FE1"/><rect x="266.25" y="88.75" width="88.75" height="88.75" fill="#183FE1"/><path d="M 266.25 177.5 A 88.75 88.75 0 0 0 355 88.75 L 266.25 88.75" fill="#3377ff"/><rect x="355" y="0" width="177.5" height="177.5" fill="#ffffff"/><rect x="355" y="0" width="88.75" height="88.75" fill="#183FE1"/><circle cx="399.375" cy="44.375" r="44.375" fill="#3377ff"/><rect x="443.75" y="0" width="88.75" height="88.75" fill="#183FE1"/><rect x="443.75" y="0" width="88.75" height="88.75" fill="#3377ff"/><rect x="355" y="88.75" width="88.75" height="88.75" fill="#183FE1"/><circle cx="399.375" cy="133.125" r="44.375" fill="#183FE1"/><rect x="443.75" y="88.75" width="88.75" height="88.75" fill="#3377ff"/><rect x="443.75" y="88.75" width="88.75" height="88.75" fill="#3377ff"/><rect x="532.5" y="0" width="177.5" height="177.5" fill="#ffffff"/><rect x="532.5" y="0" width="88.75" height="88.75" fill="#183FE1"/><circle cx="576.875" cy="44.375" r="44.375" fill="#3377ff"/><rect x="621.25" y="0" width="88.75" height="88.75" fill="#183FE1"/><rect x="621.25" y="0" width="88.75" height="88.75" fill="#183FE1"/><rect x="532.5" y="88.75" width="88.75" height="88.75" fill="#3377ff"/><circle cx="576.875" cy="133.125" r="44.375" fill="#3377ff"/><rect x="621.25" y="88.75" width="88.75" height="88.75" fill="#3377ff"/><rect x="621.25" y="88.75" width="88.75" height="88.75" fill="#183FE1"/><rect x="710" y="0" width="177.5" height="177.5" fill="#3377ff"/><path d="M 710 177.5 A 177.5 177.5 0 0 0 887.5 0 L 710 0" fill="#183FE1"/><rect x="0" y="177.5" width="177.5" height="177.5" fill="#ffffff"/><rect x="0" y="177.5" width="88.75" height="88.75" fill="#183FE1"/><path d="M 0 266.25 A 88.75 88.75 0 0 0 88.75 177.5 L 0 177.5" fill="#183FE1"/><rect x="88.75" y="177.5" width="88.75" height="88.75" fill="#183FE1"/><path d="M 88.75 177.5 A 88.75 88.75 0 0 0 177.5 266.25 L 177.5 177.5" fill="#183FE1"/><rect x="0" y="266.25" width="88.75" height="88.75" fill="#3377ff"/><path d="M 0 266.25 A 88.75 88.75 0 0 1 88.75 355 L 0 355" fill="#183FE1"/><rect x="88.75" y="266.25" width="88.75" height="88.75" fill="#183FE1"/><path d="M 88.75 355 A 88.75 88.75 0 0 1  177.5 266.25 L 177.5 355" fill="#183FE1"/><rect x="177.5" y="177.5" width="177.5" height="177.5" fill="#ffffff"/><rect x="177.5" y="177.5" width="88.75" height="88.75" fill="#3377ff"/><polygon points="266.25,177.5 266.25,266.25 177.5,266.25" fill="#3377ff"/><rect x="266.25" y="177.5" width="88.75" height="88.75" fill="#3377ff"/><polygon points="266.25,177.5 355,266.25 266.25,266.25" fill="#3377ff"/><rect x="177.5" y="266.25" width="88.75" height="88.75" fill="#183FE1"/><polygon points="177.5,266.25 266.25,266.25 177.5,355" fill="#183FE1"/><rect x="266.25" y="266.25" width="88.75" height="88.75" fill="#183FE1"/><polygon points="266.25,266.25 355,266.25 355,355" fill="#3377ff"/><rect x="355" y="177.5" width="177.5" height="177.5" fill="#183FE1"/><rect x="355" y="177.5" width="177.5" height="177.5" fill="#3377ff"/><rect x="532.5" y="177.5" width="177.5" height="177.5" fill="#ffffff"/><rect x="532.5" y="177.5" width="88.75" height="88.75" fill="#3377ff"/><polygon points="621.25,177.5 621.25,266.25 532.5,266.25" fill="#3377ff"/><rect x="621.25" y="177.5" width="88.75" height="88.75" fill="#183FE1"/><polygon points="621.25,177.5 710,177.5 621.25,266.25" fill="#183FE1"/><rect x="532.5" y="266.25" width="88.75" height="88.75" fill="#3377ff"/><polygon points="532.5,266.25 621.25,266.25 621.25,355" fill="#3377ff"/><rect x="621.25" y="266.25" width="88.75" height="88.75" fill="#3377ff"/><polygon points="621.25,266.25 710,355 621.25,355" fill="#3377ff"/><rect x="710" y="177.5" width="177.5" height="177.5" fill="#ffffff"/><rect x="710" y="177.5" width="88.75" height="88.75" fill="#183FE1"/><path d="M 710 266.25 A 88.75 88.75 0 0 1  798.75 177.5 L 798.75 266.25" fill="#183FE1"/><rect x="798.75" y="177.5" width="88.75" height="88.75" fill="#3377ff"/><path d="M 798.75 177.5 A 88.75 88.75 0 0 1 887.5 266.25 L 798.75 266.25" fill="#3377ff"/><rect x="710" y="266.25" width="88.75" height="88.75" fill="#183FE1"/><path d="M 710 266.25 A 88.75 88.75 0 0 0 798.75 355 L 798.75 266.25" fill="#3377ff"/><rect x="798.75" y="266.25" width="88.75" height="88.75" fill="#183FE1"/><path d="M 798.75 355 A 88.75 88.75 0 0 0 887.5 266.25 L 798.75 266.25" fill="#183FE1"/></g></svg>